<svg width="53" height="53" viewBox="0 0 53 53" fill="none" xmlns="http://www.w3.org/2000/svg">
<path d="M23.3826 39.75C22.9519 39.75 22.5389 39.9245 22.2344 40.2351C21.9299 40.5457 21.7588 40.967 21.7588 41.4063C21.7588 41.8455 21.9299 42.2668 22.2344 42.5774C22.5389 42.888 22.9519 43.0625 23.3826 43.0625H29.8777C30.3083 43.0625 30.7213 42.888 31.0258 42.5774C31.3304 42.2668 31.5014 41.8455 31.5014 41.4063C31.5014 40.967 31.3304 40.5457 31.0258 40.2351C30.7213 39.9245 30.3083 39.75 29.8777 39.75H23.3826Z" fill="#DC0D28"/>
<path d="M16.6 0C14.8496 0 13.1708 0.697989 11.9331 1.94042C10.6954 3.18285 10 4.86794 10 6.625V46.375C10 48.1321 10.6954 49.8172 11.9331 51.0596C13.1708 52.302 14.8496 53 16.6 53H36.4C38.1504 53 39.8292 52.302 41.0669 51.0596C42.3046 49.8172 43 48.1321 43 46.375V6.625C43 4.86794 42.3046 3.18285 41.0669 1.94042C39.8292 0.697989 38.1504 0 36.4 0H16.6ZM13.3 6.625C13.3 5.74647 13.6477 4.90392 14.2665 4.28271C14.8854 3.66149 15.7248 3.3125 16.6 3.3125H36.4C37.2752 3.3125 38.1146 3.66149 38.7335 4.28271C39.3523 4.90392 39.7 5.74647 39.7 6.625V46.375C39.7 47.2535 39.3523 48.0961 38.7335 48.7173C38.1146 49.3385 37.2752 49.6875 36.4 49.6875H16.6C15.7248 49.6875 14.8854 49.3385 14.2665 48.7173C13.6477 48.0961 13.3 47.2535 13.3 46.375V6.625Z" fill="#DC0D28"/>
<path d="M19.8838 26.1476C19.8838 26.7743 20.4062 27.2859 21.049 27.2859H22.381V30.5108C22.381 31.3277 23.0511 31.9946 23.8743 31.9946C24.7003 31.9946 25.3677 31.3304 25.3677 30.5108V27.2832H27.6925V30.5081C27.6925 31.325 28.3626 31.992 29.1859 31.992C30.0119 31.992 30.6792 31.3277 30.6792 30.5081V27.2832H32.0112C32.6539 27.2832 33.1763 26.7716 33.1763 26.1449V15.5596H19.8838V26.1476ZM29.6508 10.0742L30.8789 8.33318C30.95 8.2314 30.9336 8.0948 30.8378 8.02784C30.7421 7.96356 30.6054 7.9957 30.5343 8.09748L29.2597 9.90811C28.42 9.58402 27.4846 9.40456 26.5027 9.40456C25.5208 9.40456 24.5854 9.58402 23.7458 9.90811L22.4712 8.10016C22.4001 7.99838 22.2634 7.96356 22.1676 8.03052C22.0719 8.0948 22.0555 8.22872 22.1266 8.33586L23.3547 10.0769C21.4018 10.9661 20.0343 12.6508 19.8592 14.6195H33.1517C32.9712 12.6482 31.6009 10.9634 29.6508 10.0742ZM23.6965 12.8196C23.551 12.8196 23.4088 12.7773 23.2878 12.6982C23.1668 12.619 23.0725 12.5065 23.0168 12.3748C22.9611 12.2432 22.9465 12.0983 22.9749 11.9585C23.0033 11.8188 23.0734 11.6904 23.1763 11.5896C23.2792 11.4888 23.4103 11.4202 23.553 11.3924C23.6957 11.3646 23.8437 11.3789 23.9781 11.4334C24.1125 11.488 24.2274 11.5803 24.3083 11.6988C24.3891 11.8173 24.4323 11.9566 24.4323 12.0991C24.4318 12.29 24.3541 12.473 24.2162 12.608C24.0784 12.743 23.8915 12.8191 23.6965 12.8196ZM29.3965 12.8196C29.2509 12.8196 29.1087 12.7773 28.9877 12.6982C28.8667 12.619 28.7724 12.5065 28.7167 12.3748C28.661 12.2432 28.6465 12.0983 28.6749 11.9585C28.7032 11.8188 28.7733 11.6904 28.8762 11.5896C28.9791 11.4888 29.1102 11.4202 29.2529 11.3924C29.3956 11.3646 29.5436 11.3789 29.678 11.4334C29.8125 11.488 29.9274 11.5803 30.0082 11.6988C30.089 11.8173 30.1322 11.9566 30.1322 12.0991C30.1317 12.29 30.054 12.473 29.9161 12.608C29.7783 12.743 29.5914 12.8191 29.3965 12.8196ZM35.0066 15.0161C34.1806 15.0161 33.5133 15.6804 33.5133 16.5V22.2962C33.5133 23.1131 34.1834 23.78 35.0066 23.78C35.8326 23.78 36.5 23.1158 36.5 22.2962V16.4973C36.5027 15.6777 35.8354 15.0161 35.0066 15.0161ZM17.9934 15.0161C17.1674 15.0161 16.5 15.6804 16.5 16.5V22.2962C16.5 23.1131 17.1701 23.78 17.9934 23.78C18.8194 23.78 19.4867 23.1158 19.4867 22.2962V16.4973C19.4867 15.6777 18.8166 15.0161 17.9934 15.0161Z" fill="#DC0D28"/>
</svg>
