<svg width="50" height="43" viewBox="0 0 50 43" fill="none" xmlns="http://www.w3.org/2000/svg">
<path d="M2.03809 12.7656H47.962" stroke="black" stroke-width="3" stroke-miterlimit="10" stroke-linecap="round" stroke-linejoin="round"/>
<path d="M44.4294 2.28436H5.57069C3.62776 2.28436 2.03809 3.85655 2.03809 5.77811V12.9H24.4566H47.962V5.77811C47.962 3.85655 46.3723 2.28436 44.4294 2.28436Z" fill="#DC0D28"/>
<path d="M2.03809 12.9V5.77811C2.03809 3.85655 3.62776 2.28436 5.57069 2.28436H44.4294C46.3723 2.28436 47.962 3.85655 47.962 5.77811V12.9M2.03809 12.9V37.2219C2.03809 39.1434 3.62776 40.7156 5.57069 40.7156H44.4294C46.3723 40.7156 47.962 39.1434 47.962 37.2219V12.9M2.03809 12.9H24.4566H47.962" stroke="#DC0D28" stroke-width="3" stroke-miterlimit="10" stroke-linecap="round" stroke-linejoin="round"/>
<path d="M34.8505 32.9891L32.6086 35.2063L34.8505 37.4235" stroke="#DC0D28" stroke-width="1.5" stroke-miterlimit="10" stroke-linecap="round" stroke-linejoin="round"/>
<path d="M42.3232 32.9891L44.5651 35.2063L42.3232 37.4235" stroke="#DC0D28" stroke-width="1.5" stroke-miterlimit="10" stroke-linecap="round" stroke-linejoin="round"/>
<path d="M40.0814 32.25L37.0923 38.1625" stroke="#DC0D28" stroke-width="1.5" stroke-miterlimit="10" stroke-linecap="round" stroke-linejoin="round"/>
<path d="M32.2011 8.87583C31.6712 8.87583 31.318 8.70114 30.9647 8.35177C30.6114 8.00239 30.4348 7.65302 30.4348 7.12896C30.4348 6.60489 30.6114 6.25552 30.9647 5.90614L31.1413 5.73145C31.318 5.73145 31.318 5.55677 31.4946 5.55677C31.6712 5.38208 31.6712 5.38208 31.8479 5.38208C32.0245 5.38208 32.3777 5.38208 32.5544 5.38208C32.731 5.38208 32.731 5.38208 32.9076 5.55677C33.0843 5.55677 33.0843 5.73145 33.2609 5.73145L33.4375 5.90614C33.6142 6.08083 33.7908 6.25552 33.7908 6.4302C33.9674 6.60489 33.9674 6.95427 33.9674 7.12896C33.9674 7.30364 33.9674 7.65302 33.7908 7.8277C33.7908 8.00239 33.6142 8.17708 33.4375 8.35177C33.0843 8.70114 32.731 8.87583 32.2011 8.87583Z" fill="#F6F6F6"/>
<path d="M37.4999 8.87583C36.9701 8.87583 36.6168 8.70114 36.2635 8.35176C35.9103 8.00239 35.7336 7.65301 35.7336 7.12895C35.7336 6.95426 35.7336 6.60489 35.9103 6.4302C36.0869 6.25552 36.0869 6.08083 36.2635 5.90614C36.4402 5.73145 36.6168 5.55677 36.7934 5.55677C37.4999 5.20739 38.2065 5.38208 38.7364 5.90614C38.913 6.08083 39.0896 6.25552 39.0896 6.4302C39.2662 6.60489 39.2663 6.95426 39.2663 7.12895C39.2663 7.65301 39.0896 8.00239 38.7364 8.35176C38.3831 8.70114 38.0298 8.87583 37.4999 8.87583Z" fill="#F6F6F6"/>
<path d="M42.799 8.87583C42.6224 8.87583 42.2691 8.87583 42.0925 8.70114C41.9159 8.52645 41.7392 8.52645 41.5626 8.35177C41.386 8.17708 41.2093 8.00239 41.2093 7.8277C41.0327 7.65302 41.0327 7.30364 41.0327 7.12896C41.0327 6.95427 41.0327 6.60489 41.2093 6.4302C41.386 6.25552 41.386 6.08083 41.5626 5.90614C42.2691 5.20739 43.3289 5.20739 44.0354 5.90614C44.2121 6.08083 44.3887 6.25552 44.3887 6.4302C44.5653 6.60489 44.5653 6.95427 44.5653 7.12896C44.5653 7.30364 44.5653 7.65302 44.3887 7.8277C44.2121 8.00239 44.2121 8.17708 44.0354 8.35177C43.6822 8.70114 43.3289 8.87583 42.799 8.87583Z" fill="#F6F6F6"/>
<path d="M26.5806 17.1812C26.116 15.6062 23.884 15.6062 23.4194 17.1812L23.3069 17.5637C23.2375 17.7995 23.1161 18.0168 22.9518 18.1996C22.7875 18.3824 22.5843 18.5261 22.3573 18.6202C22.1302 18.7143 21.8849 18.7563 21.6395 18.7433C21.394 18.7302 21.1546 18.6624 20.9387 18.5448L20.59 18.3535C19.1466 17.5682 17.5682 19.1466 18.3546 20.5889L18.5448 20.9387C19.0465 21.8612 18.5706 23.0099 17.5637 23.3069L17.1812 23.4194C15.6062 23.884 15.6062 26.116 17.1812 26.5806L17.5637 26.6931C17.7995 26.7625 18.0168 26.8839 18.1996 27.0482C18.3824 27.2125 18.5261 27.4157 18.6202 27.6427C18.7143 27.8698 18.7563 28.1151 18.7433 28.3605C18.7302 28.606 18.6624 28.8454 18.5448 29.0612L18.3535 29.41C17.5682 30.8534 19.1466 32.4317 20.5889 31.6454L20.9387 31.4552C21.1546 31.3376 21.394 31.2698 21.6395 31.2567C21.8849 31.2437 22.1302 31.2857 22.3573 31.3798C22.5843 31.4739 22.7875 31.6176 22.9518 31.8004C23.1161 31.9832 23.2375 32.2005 23.3069 32.4362L23.4194 32.8187C23.884 34.3937 26.116 34.3937 26.5806 32.8187L26.6931 32.4362C26.7625 32.2005 26.8839 31.9832 27.0482 31.8004C27.2125 31.6176 27.4157 31.4739 27.6427 31.3798C27.8698 31.2857 28.1151 31.2437 28.3605 31.2567C28.606 31.2698 28.8454 31.3376 29.0612 31.4552L29.41 31.6465C30.8534 32.4318 32.4317 30.8534 31.6454 29.4111L31.4552 29.0612C31.3376 28.8454 31.2698 28.606 31.2567 28.3605C31.2437 28.1151 31.2857 27.8698 31.3798 27.6427C31.4739 27.4157 31.6176 27.2125 31.8004 27.0482C31.9832 26.8839 32.2005 26.7625 32.4362 26.6931L32.8187 26.5806C34.3937 26.116 34.3937 23.884 32.8187 23.4194L32.4362 23.3069C32.2005 23.2375 31.9832 23.1161 31.8004 22.9518C31.6176 22.7875 31.4739 22.5843 31.3798 22.3573C31.2857 22.1302 31.2437 21.8849 31.2567 21.6395C31.2698 21.394 31.3376 21.1546 31.4552 20.9387L31.6465 20.59C32.4318 19.1466 30.8534 17.5682 29.4111 18.3546L29.0612 18.5448C28.8454 18.6624 28.606 18.7302 28.3605 18.7433C28.1151 18.7563 27.8698 18.7143 27.6427 18.6202C27.4157 18.5261 27.2125 18.3824 27.0482 18.1996C26.8839 18.0168 26.7625 17.7995 26.6931 17.5637L26.5806 17.1812V17.1812ZM25 28.2963C24.1258 28.2963 23.2874 27.949 22.6692 27.3308C22.051 26.7126 21.7038 25.8742 21.7038 25C21.7038 24.1258 22.051 23.2874 22.6692 22.6692C23.2874 22.051 24.1258 21.7038 25 21.7038C25.8739 21.7038 26.712 22.0509 27.33 22.6689C27.948 23.2868 28.2951 24.125 28.2951 24.9989C28.2951 25.8728 27.948 26.7109 27.33 27.3289C26.712 27.9468 25.8739 28.294 25 28.294V28.2963Z" fill="#DC0D28"/>
</svg>
