<svg width="52" height="50" viewBox="0 0 52 50" fill="none" xmlns="http://www.w3.org/2000/svg">
<g clip-path="url(#clip0_194_43)">
<path d="M35.0308 43.6336C34.7614 43.4696 34.5266 43.2498 34.34 42.9834C34.2538 42.8606 34.181 42.7307 34.1207 42.5965H3.50216V12.4172H45.0624V32.1232C45.9497 32.2033 46.6941 32.7861 47.0067 33.584C47.2834 33.4323 47.5919 33.3386 47.9161 33.31C48.1354 33.2909 48.3532 33.3045 48.5645 33.3463V4.89883C48.5645 3.28954 47.2555 1.98029 45.6463 1.98029H2.91842C1.30925 1.98029 0 3.28954 0 4.89883V43.1803C0 44.7896 1.30925 46.0988 2.91842 46.0988H34.7649C34.5163 45.5955 34.4574 45.0274 34.6036 44.4808C34.688 44.1664 34.8338 43.8796 35.0308 43.6336ZM41.8576 6.8811C41.8576 6.28597 42.34 5.80341 42.9352 5.80341H44.0127C44.608 5.80341 45.0903 6.28585 45.0903 6.8811V8.10243C45.0903 8.69756 44.6078 9.18 44.0127 9.18H42.9352C42.3399 9.18 41.8576 8.69756 41.8576 8.10243V6.8811ZM36.8468 6.8811C36.8468 6.28597 37.3293 5.80341 37.9244 5.80341H39.0021C39.5973 5.80341 40.0796 6.28585 40.0796 6.8811V8.10243C40.0796 8.69756 39.5972 9.18 39.0021 9.18H37.9244C37.3293 9.18 36.8468 8.69756 36.8468 8.10243V6.8811ZM31.8359 6.8811C31.8359 6.28597 32.3185 5.80341 32.9135 5.80341H33.991C34.5863 5.80341 35.0687 6.28585 35.0687 6.8811V8.10243C35.0687 8.69756 34.5863 9.18 33.991 9.18H32.9135C32.3185 9.18 31.8359 8.69756 31.8359 8.10243V6.8811Z" fill="#DC0D28"/>
<path d="M51.9931 41.5783L51.6693 39.7419C51.6256 39.4946 51.3899 39.3295 51.1424 39.373L49.5093 39.6608C49.3133 39.2008 49.0629 38.7699 48.7657 38.3755L49.8324 37.104C49.9099 37.0119 49.9477 36.8924 49.9373 36.7721C49.9266 36.6519 49.8687 36.5409 49.7763 36.4633L48.348 35.2646C48.2556 35.1871 48.1359 35.1495 48.0158 35.16C47.8956 35.1705 47.7846 35.2283 47.7071 35.3207L46.6414 36.5912C46.2039 36.3683 45.736 36.1964 45.2457 36.083V34.4247C45.2457 34.1736 45.042 33.9697 44.7909 33.9697H42.926C42.675 33.9697 42.4712 34.1736 42.4712 34.4247V36.083C41.9807 36.1963 41.5132 36.3683 41.0755 36.5912L40.0096 35.3208C39.8481 35.1284 39.5613 35.1034 39.3688 35.2647L37.9404 36.4633C37.848 36.5409 37.7902 36.6519 37.7795 36.7721C37.7691 36.8924 37.8068 37.012 37.8843 37.1044L38.9511 38.3756C38.6544 38.7699 38.4035 39.201 38.2075 39.6609L36.5744 39.373C36.3275 39.3296 36.0913 39.4946 36.0475 39.7419L35.7238 41.5783C35.7029 41.6971 35.73 41.8192 35.799 41.9181C35.8685 42.0171 35.9736 42.0843 36.0925 42.1052L37.7268 42.3933C37.7534 42.8996 37.8416 43.3895 37.9835 43.8559L36.547 44.685C36.4425 44.745 36.3664 44.8446 36.335 44.961C36.3038 45.0775 36.3203 45.2016 36.3805 45.3061L37.3128 46.921C37.3729 47.0255 37.4724 47.1016 37.5888 47.1328C37.6276 47.1432 37.6671 47.1483 37.7066 47.1483C37.7857 47.1483 37.8641 47.1278 37.9339 47.0874L39.3715 46.2574C39.7095 46.6196 40.0912 46.9405 40.5082 47.212L39.9406 48.7714C39.8995 48.8848 39.9048 49.0099 39.9558 49.1192C40.0068 49.2285 40.0991 49.3131 40.2124 49.3542L41.9643 49.9918C42.0146 50.0102 42.0674 50.0196 42.12 50.0196C42.1856 50.0196 42.2516 50.0053 42.3124 49.9768C42.4218 49.9259 42.5061 49.8336 42.5473 49.7201L43.1149 48.1608C43.3582 48.1902 43.6058 48.2055 43.8571 48.2055C44.1083 48.2055 44.356 48.19 44.5993 48.1608L45.167 49.7201C45.2081 49.8336 45.2928 49.9259 45.4019 49.9768C45.4625 50.0052 45.5283 50.0196 45.5943 50.0196C45.6468 50.0196 45.6996 50.0104 45.7498 49.9918L47.502 49.3542C47.6151 49.3131 47.7075 49.2283 47.7583 49.1192C47.8094 49.0099 47.8148 48.8848 47.7736 48.7714L47.2059 47.2122C47.6226 46.9408 48.0043 46.6196 48.3427 46.2576L49.7802 47.0876C49.85 47.1278 49.9285 47.1486 50.0076 47.1486C50.047 47.1486 50.0868 47.1432 50.1254 47.1331C50.2419 47.1019 50.3412 47.0255 50.4014 46.9212L51.3337 45.3061C51.3939 45.2018 51.4103 45.0775 51.3791 44.961C51.3478 44.8448 51.2716 44.7453 51.1671 44.685L49.731 43.8562C49.8729 43.3896 49.9608 42.8997 49.9874 42.3935L51.6217 42.1053C51.7406 42.0844 51.8461 42.0172 51.9152 41.9182C51.9869 41.8192 52.014 41.6971 51.9931 41.5783ZM43.8586 44.4965C42.4773 44.4965 41.3572 43.3765 41.3572 41.995C41.3572 40.6136 42.4774 39.4937 43.8586 39.4937C45.24 39.4937 46.3601 40.6136 46.3601 41.995C46.3601 43.3765 45.24 44.4965 43.8586 44.4965Z" fill="#DC0D28"/>
<path d="M20.6885 25.7666C20.6885 25.2411 20.3805 24.7583 19.9037 24.5369L15.54 22.5094L19.9038 20.4817C20.3805 20.2601 20.6885 19.7774 20.6885 19.2521V19.2168C20.6885 18.7512 20.4541 18.3237 20.0619 18.0739C19.8449 17.9353 19.5922 17.862 19.3313 17.862C19.1347 17.862 18.9373 17.9052 18.7606 17.9873L11.7844 21.2315C11.3078 21.4531 11 21.9358 11 22.461V22.558C11 23.0825 11.3077 23.5649 11.7845 23.7876L18.7614 27.0321C18.9418 27.1156 19.1339 27.158 19.3323 27.158C19.5909 27.158 19.8428 27.0845 20.0619 26.9452C20.4543 26.6943 20.6886 26.2672 20.6886 25.8021L20.6885 25.7666Z" fill="#DC0D28"/>
<path d="M27.5718 14.5563C27.3173 14.2079 26.908 14 26.4768 14H26.4421C25.8499 14 25.3308 14.3788 25.1504 14.9419L20.5539 29.1837C20.4231 29.5949 20.4968 30.0478 20.7509 30.3961C21.0054 30.7443 21.4147 30.9523 21.846 30.9523H21.8808C22.4727 30.9523 22.9915 30.5734 23.1717 30.0105L27.7676 15.7697C27.8996 15.3588 27.8264 14.9052 27.5718 14.5563Z" fill="#DC0D28"/>
<path d="M36.5378 21.2314L29.5614 17.9872C29.3853 17.9054 29.1883 17.8621 28.9916 17.8621C28.7308 17.8621 28.478 17.9352 28.2611 18.0736C27.8683 18.3239 27.6339 18.7512 27.6339 19.2168V19.2521C27.6339 19.777 27.9417 20.2598 28.4188 20.4823L32.7823 22.5096L28.4187 24.5369C27.9419 24.7583 27.6339 25.2411 27.6339 25.7667V25.8022C27.6339 26.2672 27.8683 26.6942 28.2609 26.9453C28.4792 27.0844 28.7314 27.158 28.9903 27.158C29.1885 27.158 29.3804 27.1156 29.562 27.0318L36.5387 23.7873C37.015 23.5651 37.3226 23.0827 37.3226 22.5581V22.4611C37.3223 21.9358 37.0145 21.4531 36.5378 21.2314Z" fill="#DC0D28"/>
<path d="M1.6325 45.4878C2.53806 45.353 9.68443 41.4807 10.4235 37.3966L7.63492 34.9993C0.901036 41.6519 4.42786 38.8624 0.830862 44.8786L1.6325 45.4878ZM11.1532 36.5218C15.6029 34.4318 12.4153 31.3947 16.8498 29.3599C11.555 28.6835 9.44843 31.0014 8.3639 34.1163L11.1532 36.5218Z" fill="#DC0D28"/>
</g>
<defs>
<clipPath id="clip0_194_43">
<rect width="52" height="50" fill="white"/>
</clipPath>
</defs>
</svg>
