<svg width="53" height="53" viewBox="0 0 53 53" fill="none" xmlns="http://www.w3.org/2000/svg">
<path d="M16.6001 0C14.8497 0 13.171 0.697989 11.9332 1.94042C10.6955 3.18285 10.0001 4.86794 10.0001 6.625V46.375C10.0001 48.1321 10.6955 49.8172 11.9332 51.0596C13.171 52.302 14.8497 53 16.6001 53H36.4001C38.1506 53 39.8293 52.302 41.067 51.0596C42.3048 49.8172 43.0001 48.1321 43.0001 46.375V6.625C43.0001 4.86794 42.3048 3.18285 41.067 1.94042C39.8293 0.697989 38.1506 0 36.4001 0H16.6001ZM13.3001 6.625C13.3001 5.74647 13.6478 4.90392 14.2667 4.28271C14.8855 3.66149 15.7249 3.3125 16.6001 3.3125H36.4001C37.2753 3.3125 38.1147 3.66149 38.7336 4.28271C39.3524 4.90392 39.7001 5.74647 39.7001 6.625V46.375C39.7001 47.2535 39.3524 48.0961 38.7336 48.7173C38.1147 49.3385 37.2753 49.6875 36.4001 49.6875H16.6001C15.7249 49.6875 14.8855 49.3385 14.2667 48.7173C13.6478 48.0961 13.3001 47.2535 13.3001 46.375V6.625Z" fill="#DC0D28"/>
<circle cx="26.5" cy="42.5" r="3.5" fill="#DC0D28"/>
<path d="M32.0489 18.0978C32.0386 16.3764 32.8343 15.0791 34.4412 14.1226C33.5425 12.8606 32.1828 12.1665 30.3906 12.0327C28.6936 11.9015 26.8369 13.0019 26.1571 13.0019C25.4386 13.0019 23.7957 12.0782 22.503 12.0782C19.8352 12.1186 17 14.1629 17 18.3224C17 19.5516 17.2292 20.8211 17.6876 22.1285C18.3004 23.8498 20.5099 28.0673 22.8146 27.9992C24.0197 27.9714 24.8721 27.1612 26.4403 27.1612C27.9622 27.1612 28.7502 27.9992 30.0944 27.9992C32.4197 27.9664 34.418 24.1325 35 22.4061C31.8815 20.965 32.0489 18.1861 32.0489 18.0978V18.0978ZM29.3425 10.3997C30.6481 8.88034 30.5296 7.49722 30.491 7C29.3373 7.06562 28.0034 7.7698 27.2438 8.63551C26.4069 9.56432 25.915 10.7127 26.0206 12.0075C27.267 12.1009 28.4051 11.4724 29.3425 10.3997V10.3997Z" fill="#DC0D28"/>
</svg>
