<svg width="50" height="43" viewBox="0 0 50 43" fill="none" xmlns="http://www.w3.org/2000/svg">
<path d="M2.03809 12.7656H47.962" stroke="black" stroke-width="3" stroke-miterlimit="10" stroke-linecap="round" stroke-linejoin="round"/>
<path d="M44.4294 2.28436H5.57069C3.62776 2.28436 2.03809 3.85655 2.03809 5.77811V12.9H24.4566H47.962V5.77811C47.962 3.85655 46.3723 2.28436 44.4294 2.28436Z" fill="#DC0D28"/>
<path d="M2.03809 12.9V5.77811C2.03809 3.85655 3.62776 2.28436 5.57069 2.28436H44.4294C46.3723 2.28436 47.962 3.85655 47.962 5.77811V12.9M2.03809 12.9V37.2219C2.03809 39.1434 3.62776 40.7156 5.57069 40.7156H44.4294C46.3723 40.7156 47.962 39.1434 47.962 37.2219V12.9M2.03809 12.9H24.4566H47.962" stroke="#DC0D28" stroke-width="3" stroke-miterlimit="10" stroke-linecap="round" stroke-linejoin="round"/>
<path d="M32.2011 8.87583C31.6712 8.87583 31.318 8.70114 30.9647 8.35177C30.6114 8.00239 30.4348 7.65302 30.4348 7.12896C30.4348 6.60489 30.6114 6.25552 30.9647 5.90614L31.1413 5.73145C31.318 5.73145 31.318 5.55677 31.4946 5.55677C31.6712 5.38208 31.6712 5.38208 31.8479 5.38208C32.0245 5.38208 32.3777 5.38208 32.5544 5.38208C32.731 5.38208 32.731 5.38208 32.9076 5.55677C33.0843 5.55677 33.0843 5.73145 33.2609 5.73145L33.4375 5.90614C33.6142 6.08083 33.7908 6.25552 33.7908 6.4302C33.9674 6.60489 33.9674 6.95427 33.9674 7.12896C33.9674 7.30364 33.9674 7.65302 33.7908 7.8277C33.7908 8.00239 33.6142 8.17708 33.4375 8.35177C33.0843 8.70114 32.731 8.87583 32.2011 8.87583Z" fill="#F6F6F6"/>
<path d="M37.4999 8.87583C36.9701 8.87583 36.6168 8.70114 36.2635 8.35176C35.9103 8.00239 35.7336 7.65301 35.7336 7.12895C35.7336 6.95426 35.7336 6.60489 35.9103 6.4302C36.0869 6.25552 36.0869 6.08083 36.2635 5.90614C36.4402 5.73145 36.6168 5.55677 36.7934 5.55677C37.4999 5.20739 38.2065 5.38208 38.7364 5.90614C38.913 6.08083 39.0896 6.25552 39.0896 6.4302C39.2662 6.60489 39.2663 6.95426 39.2663 7.12895C39.2663 7.65301 39.0896 8.00239 38.7364 8.35176C38.3831 8.70114 38.0298 8.87583 37.4999 8.87583Z" fill="#F6F6F6"/>
<path d="M42.7989 8.87583C42.6223 8.87583 42.269 8.87583 42.0924 8.70114C41.9157 8.52645 41.7391 8.52645 41.5625 8.35177C41.3859 8.17708 41.2092 8.00239 41.2092 7.8277C41.0326 7.65302 41.0326 7.30364 41.0326 7.12896C41.0326 6.95427 41.0326 6.60489 41.2092 6.4302C41.3859 6.25552 41.3859 6.08083 41.5625 5.90614C42.269 5.20739 43.3288 5.20739 44.0353 5.90614C44.2119 6.08083 44.3886 6.25552 44.3886 6.4302C44.5652 6.60489 44.5652 6.95427 44.5652 7.12896C44.5652 7.30364 44.5652 7.65302 44.3886 7.8277C44.2119 8.00239 44.2119 8.17708 44.0353 8.35177C43.6821 8.70114 43.3288 8.87583 42.7989 8.87583Z" fill="#F6F6F6"/>
<path d="M28.1641 26.5605L29.3066 27.7031L27.8828 29.127C27.7773 29.2324 27.7773 29.3379 27.8828 29.4434L28.1816 29.7422C28.2871 29.8477 28.3926 29.8477 28.498 29.7422L29.9219 28.3184L32.1191 30.5156L30.6953 31.9395C30.5898 32.0449 30.5898 32.1445 30.6953 32.2383L30.9941 32.5547C31.0996 32.6602 31.2051 32.6602 31.3105 32.5547L32.7344 31.1309L33.8418 32.2383C33.9473 32.3438 34 32.4727 34 32.625C34 32.7773 33.9473 32.9121 33.8418 33.0293L31.0293 35.8418C30.9121 35.9473 30.7773 36 30.625 36C30.4727 36 30.3438 35.9473 30.2383 35.8418L24.5605 30.1641L21.2559 33.4688C21.0684 33.6562 20.8398 33.75 20.5703 33.75C20.3008 33.75 20.0723 33.6562 19.8848 33.4688L18.5488 32.1152C18.3613 31.9277 18.2676 31.7021 18.2676 31.4385C18.2676 31.1748 18.3613 30.9492 18.5488 30.7617L21.8535 27.457L16.1582 21.7617C16.0527 21.6562 16 21.5273 16 21.375C16 21.2227 16.0527 21.0938 16.1582 20.9883L18.9707 18.1582C19.0879 18.0527 19.2227 18 19.375 18C19.5273 18 19.6562 18.0527 19.7617 18.1582L20.8691 19.2656L19.4453 20.6895C19.3398 20.7949 19.3398 20.9004 19.4453 21.0059L19.7441 21.3047C19.8496 21.4102 19.9551 21.4102 20.0605 21.3047L21.4844 19.8809L23.6816 22.0781L22.2578 23.502C22.1523 23.6074 22.1523 23.7129 22.2578 23.8184L22.5566 24.1172C22.6621 24.2227 22.7676 24.2227 22.873 24.1172L24.2969 22.6934L25.4395 23.8535L31.0117 18.2812C31.1992 18.0938 31.4248 18 31.6885 18C31.9521 18 32.1777 18.0938 32.3652 18.2812L33.7188 19.6348C33.9062 19.8223 34 20.0479 34 20.3115C34 20.5752 33.9062 20.8008 33.7188 20.9883L28.1641 26.5605ZM17.1602 32.2031C17.1836 32.2969 17.2246 32.373 17.2832 32.4316L19.5684 34.7168C19.627 34.7754 19.7031 34.8164 19.7969 34.8398C19.7383 34.957 19.6914 35.0273 19.6562 35.0508L16.5625 36C16.2812 36 16.1172 35.9766 16.0703 35.9297C16.0234 35.8828 16 35.7188 16 35.4375L16.9492 32.3438C16.9727 32.3203 17.043 32.2734 17.1602 32.2031Z" fill="#DC0D28"/>
</svg>
