<svg width="50" height="60" viewBox="0 0 50 60" fill="none" xmlns="http://www.w3.org/2000/svg">
<path fill-rule="evenodd" clip-rule="evenodd" d="M34.375 3.45166C35.2038 3.45166 35.9987 3.79357 36.5847 4.40217C37.1708 5.01077 37.5 5.83621 37.5 6.6969V37.2159L39.3617 39.4255L40.625 39.0496V6.6969C40.625 4.97552 39.9665 3.32464 38.7944 2.10744C37.6223 0.890237 36.0326 0.206421 34.375 0.206421H15.625C13.9674 0.206421 12.3777 0.890237 11.2056 2.10744C10.0335 3.32464 9.375 4.97552 9.375 6.6969V31L12.5 28V6.6969C12.5 5.83621 12.8292 5.01077 13.4153 4.40217C14.0013 3.79357 14.7962 3.45166 15.625 3.45166H34.375ZM9.375 36V45.6398C9.375 47.3611 10.0335 49.012 11.2056 50.2292C12.3777 51.4464 13.9674 52.1302 15.625 52.1302H24.9085L21.7252 48.885H15.625C14.7962 48.885 14.0013 48.5431 13.4153 47.9345C12.8292 47.3259 12.5 46.5004 12.5 45.6398V36H9.375Z" fill="#DC0D28"/>
<path d="M28.8497 29.8286C27.2638 29.8286 25.9575 31.1852 25.9575 32.8322V44.6592L25.325 43.9704L25.084 43.7512C24.5477 43.1968 23.8219 42.8855 23.0652 42.8855C22.3085 42.8855 21.5826 43.1968 21.0463 43.7512C20.5125 44.3081 20.2128 45.0619 20.2128 45.8477C20.2128 46.6335 20.5125 47.3873 21.0463 47.9442V47.9752L28.9404 56.0788L29.0001 56.1099L29.03 56.1729C30.4174 57.2651 32.1096 57.858 33.8505 57.8619H35.5088C36.546 57.8642 37.5734 57.6537 38.5321 57.2425C39.4907 56.8313 40.3618 56.2275 41.0951 55.4658C41.8285 54.7041 42.4098 53.7995 42.8057 52.8039C43.2015 51.8083 43.4041 50.7413 43.4018 49.6642V41.8429C43.4018 40.1959 42.0945 38.8393 40.5095 38.8393C40.0988 38.8393 39.719 38.9565 39.3642 39.1207C39.0479 37.8191 37.9074 36.8369 36.5625 36.8369C35.824 36.8369 35.1463 37.1373 34.6343 37.6189C34.1073 37.1188 33.42 36.8401 32.7061 36.8369C32.3767 36.8412 32.0505 36.9049 31.742 37.0252V32.8322C31.742 31.1852 30.4357 29.8286 28.8497 29.8286ZM28.8497 31.831C29.3848 31.831 29.8138 32.2765 29.8138 32.8322V43.8453H31.742V39.8405C31.742 39.2849 32.1711 38.8393 32.7061 38.8393C33.2412 38.8393 33.6702 39.2849 33.6702 39.8405V43.8453H35.5984V39.8405C35.5984 39.2849 36.0274 38.8393 36.5625 38.8393C37.0976 38.8393 37.5266 39.2849 37.5266 39.8405V43.8453H39.5454V41.8429C39.5454 41.2872 39.9744 40.8417 40.5095 40.8417C41.0436 40.8417 41.4736 41.2872 41.4736 41.8429V49.6652C41.4736 53.1333 38.8484 55.8596 35.5078 55.8596H33.8515C32.4391 55.8596 31.2185 55.3359 30.2053 54.545L22.4019 46.5355C21.9728 46.09 21.9728 45.6044 22.4019 45.1588C22.8319 44.7133 23.2985 44.7133 23.7275 45.1588L27.8856 49.477V32.8322C27.8856 32.2765 28.3147 31.831 28.8497 31.831Z" fill="#DC0D28"/>
<g clip-path="url(#clip0_194_89)">
<path d="M32.6586 11.9233C30.7379 9.99655 28.1842 8.93542 25.468 8.93549C22.752 8.93549 20.1979 9.99669 18.2773 11.9233C16.3566 13.8501 15.2989 16.412 15.2989 19.1368C15.2989 20.9963 15.7918 22.7796 16.715 24.3372L9.31387 31.7618C8.84957 32.2277 8.59375 32.8471 8.59375 33.5059C8.59375 34.1648 8.8495 34.7842 9.31387 35.2499L9.40568 35.342C9.87005 35.808 10.4875 36.0645 11.1443 36.0645C11.8012 36.0645 12.4185 35.808 12.8829 35.3421L20.284 27.9175C21.8366 28.8437 23.6144 29.3381 25.4679 29.3381C28.1842 29.3381 30.7379 28.277 32.6586 26.3503C34.5793 24.4236 35.637 21.8617 35.637 19.1368C35.637 16.412 34.5794 13.8502 32.6586 11.9233ZM11.7051 34.3029C11.5723 34.4361 11.3319 34.3029 11.1442 34.3029C10.9566 34.3029 10.7802 34.2295 10.6474 34.0964L10.5555 34.0042C10.4229 33.8711 10.3497 33.6941 10.3497 33.5059C10.3497 33.3176 10.1482 32.8549 10.2809 32.7218L13.8804 29.0525L17.4799 25.5C17.6463 25.6936 18.0952 26.1676 18.2772 26.3503C18.4592 26.5329 18.647 26.7077 18.8401 26.8745L15.3045 30.6919L11.7051 34.3029ZM31.4169 25.1046C29.8278 26.6987 27.7151 27.5765 25.468 27.5765C23.2208 27.5765 21.1081 26.6987 19.5192 25.1046C17.9301 23.5105 17.055 21.3912 17.0551 19.1369C17.0551 16.8825 17.9301 14.7632 19.5192 13.1691C21.1082 11.575 23.2208 10.6971 25.468 10.6972C27.7152 10.6972 29.8279 11.575 31.4169 13.1691C33.006 14.7632 33.8811 16.8826 33.881 19.1369C33.881 21.3912 33.0059 23.5105 31.4169 25.1046Z" fill="#DC0D28" stroke="#DC0D28"/>
</g>
<defs>
<clipPath id="clip0_194_89">
<rect width="28.8462" height="29" fill="white" transform="translate(7.69226 8)"/>
</clipPath>
</defs>
</svg>
